<svg width="100.000000" height="10.000000" viewBox="0 0 100 10" fill="none" xmlns="http://www.w3.org/2000/svg" xmlns:xlink="http://www.w3.org/1999/xlink">
	<desc>
			Created with Pixso.
	</desc>
	<defs>
		<clipPath id="clip4_22106">
			<rect id="logo-zasovskiy-small-black" width="100.000000" height="10.000000" transform="translate(-0.500000 0.000000)" fill="white" fill-opacity="0"/>
		</clipPath>
	</defs>
	<rect id="logo-zasovskiy-small-black" width="100.000000" height="10.000000" transform="translate(-0.500000 0.000000)" fill="#FFFFFF" fill-opacity="0"/>
	<g clip-path="url(#clip4_22106)">
		<path id="Union" d="M17.7412 0.369629L9.8877 7.77979C9.6123 8.03979 9.81738 8.46948 10.2168 8.46948L17.9053 8.46948C18.0312 8.46948 18.1328 8.37793 18.1328 8.26538L18.1328 0.510498C18.1328 0.326172 17.8828 0.236328 17.7412 0.369629ZM7.74512 2.22021L-0.108398 9.63037C-0.25 9.76392 -0.5 9.67383 -0.5 9.48975L-0.5 1.73486C-0.5 1.62207 -0.398438 1.53076 -0.272461 1.53076L7.41602 1.53076C7.81543 1.53076 8.02051 1.96045 7.74512 2.22021ZM48.4053 2.07764C48.7578 2.17993 49.0615 2.29102 49.3145 2.41992L48.3311 3.70459C48.1172 3.62915 47.874 3.55811 47.6055 3.50024C47.1484 3.39795 46.5078 3.29565 45.7471 3.29565C44.7881 3.29565 44.2373 3.41138 44.2373 3.74927C44.2373 4.09155 44.6895 4.18921 45.9258 4.30933C48.6338 4.58057 49.6475 5.10962 49.6475 6.37207C49.6475 7.90137 47.9629 8.46167 45.5986 8.46167C44.2969 8.46167 43.3721 8.28369 42.7715 8.09253C42.4189 7.98145 42.125 7.85693 41.8916 7.71924L42.876 6.43433C43.084 6.5188 43.3232 6.59888 43.5957 6.66553C44.0527 6.78564 44.709 6.89673 45.499 6.89673C46.7959 6.89673 47.5264 6.78101 47.5264 6.37207C47.5264 6.052 47.168 5.99878 45.5186 5.83423C42.7617 5.57178 42.1152 4.78052 42.1152 3.74927C42.1152 2.6377 43.0996 1.73071 45.6484 1.73071C46.8799 1.73071 47.7939 1.9043 48.4053 2.07764ZM60.1523 5.09619C60.1523 6.95898 58.6123 8.46167 55.2539 8.46167C51.8955 8.46167 50.3555 6.95898 50.3555 5.09619C50.3555 3.2334 51.8955 1.73071 55.2539 1.73071C58.6123 1.73071 60.1523 3.2334 60.1523 5.09619ZM76.3691 2.07764C76.7217 2.17993 77.0244 2.29102 77.2783 2.41992L76.2939 3.70459C76.0801 3.62915 75.8369 3.55811 75.5684 3.50024C75.1113 3.39795 74.4707 3.29565 73.7109 3.29565C72.752 3.29565 72.2002 3.41138 72.2002 3.74927C72.2002 4.09155 72.6523 4.18921 73.8896 4.30933C76.5977 4.58057 77.6104 5.10962 77.6104 6.37207C77.6104 7.90137 75.9268 8.46167 73.5615 8.46167C72.2598 8.46167 71.3359 8.28369 70.7344 8.09253C70.3818 7.98145 70.0889 7.85693 69.8555 7.71924L70.8389 6.43433C71.0479 6.5188 71.2861 6.59888 71.5596 6.66553C72.0166 6.78564 72.6719 6.89673 73.4619 6.89673C74.7588 6.89673 75.4893 6.78101 75.4893 6.37207C75.4893 6.052 75.1318 5.99878 73.4824 5.83423C70.7246 5.57178 70.0791 4.78052 70.0791 3.74927C70.0791 2.6377 71.0625 1.73071 73.6113 1.73071C74.8438 1.73071 75.7578 1.9043 76.3691 2.07764ZM31.2305 2.83789L27.1768 6.71875L31.2305 6.71875L31.2305 8.28369L23.7529 8.28369L23.7529 7.35449L27.8027 3.47363L23.8525 3.47363L23.8525 1.90869L31.2305 1.90869L31.2305 2.83789ZM41.4375 8.28369L39.1816 8.28369L38.5508 7.25244L34.7754 7.25244L34.1445 8.28369L31.8887 8.28369L35.7988 1.90869L37.5273 1.90869L41.4375 8.28369ZM60.21 1.90869L62.4648 1.90869L64.8848 6.02979L67.3047 1.90869L69.5596 1.90869L65.749 8.28369L64.0205 8.28369L60.21 1.90869ZM80.6191 1.90869L80.6191 4.27808L83.8232 1.90869L86.5713 1.90869L82.8496 4.6604L86.6201 8.28369L84.0518 8.28369L81.3984 5.73193L80.6191 6.30981L80.6191 8.28369L78.5176 8.28369L78.5176 1.90869L80.6191 1.90869ZM89.4795 8.28369L87.3779 8.28369L87.3779 1.90869L89.4795 1.90869L89.4795 8.28369ZM90.2373 1.90869L92.7158 1.90869L94.8672 4.22925L97.0186 1.90869L99.498 1.90869L95.9209 5.75415L95.9209 8.28369L93.8145 8.28369L93.8145 5.75415L90.2373 1.90869ZM52.4766 5.09619C52.4766 6.00317 53.0732 6.89673 55.2539 6.89673C57.4346 6.89673 58.0312 6.00317 58.0312 5.09619C58.0312 4.18921 57.4346 3.29565 55.2539 3.29565C53.0732 3.29565 52.4766 4.18921 52.4766 5.09619ZM37.6768 5.8208L36.6631 4.1626L35.6494 5.8208L37.6768 5.8208Z" clip-rule="evenodd" fill="#414141" fill-opacity="1.000000" fill-rule="evenodd"/>
	</g>
</svg>
