<svg width="64.000000" height="45.000000" viewBox="0 0 64 45" fill="none" xmlns="http://www.w3.org/2000/svg" xmlns:xlink="http://www.w3.org/1999/xlink">
	<desc>
			Created with Pixso.
	</desc>
	<defs/>
	<path id="Vector" d="M44.49 14.26L16.97 14.26C16.39 14.26 15.92 14.73 15.97 15.28C16.58 21.87 22.95 27.05 30.73 27.05C38.5 27.05 44.88 21.87 45.48 15.28C45.53 14.73 45.06 14.26 44.49 14.26Z" fill="#FF6633" fill-opacity="1.000000" fill-rule="nonzero"/>
	<path id="Vector" d="M25.76 4.4C25.45 4.4 25.15 4.27 24.95 4.02C23.94 2.75 22.03 1.95 19.97 1.95C17.9 1.95 15.99 2.74 14.98 4.02C14.64 4.45 14 4.53 13.56 4.2C13.11 3.88 13.02 3.26 13.36 2.83C14.77 1.05 17.23 0 19.97 0C22.7 0 25.17 1.05 26.57 2.83C26.91 3.26 26.83 3.88 26.38 4.2C26.19 4.34 25.98 4.4 25.76 4.4Z" fill="#414141" fill-opacity="1.000000" fill-rule="nonzero"/>
	<path id="Vector" d="M47.28 4.4C46.98 4.4 46.67 4.27 46.47 4.02C45.47 2.75 43.56 1.95 41.49 1.95C39.42 1.95 37.51 2.74 36.51 4.02C36.16 4.45 35.52 4.53 35.08 4.2C34.63 3.88 34.54 3.26 34.88 2.83C36.29 1.05 38.76 0 41.49 0C44.22 0 46.69 1.05 48.09 2.83C48.43 3.26 48.35 3.88 47.9 4.2C47.71 4.34 47.5 4.4 47.28 4.4Z" fill="#414141" fill-opacity="1.000000" fill-rule="nonzero"/>
	<path id="Vector" d="M2.35 30L1.95 31.02C1.91 31.1 1.78 31.13 1.66 31.09C1.39 31.01 1.11 30.87 0.82 30.67C0.52 30.46 0.29 30.25 0.12 30.02C-0.14 29.67 -0.32 29.3 -0.42 28.9C-0.51 28.49 -0.53 28.1 -0.47 27.72C-0.41 27.34 -0.27 26.97 -0.05 26.62C0.17 26.27 0.46 25.97 0.82 25.72C1.17 25.48 1.56 25.31 1.97 25.22C2.39 25.13 2.79 25.11 3.19 25.18C3.59 25.24 3.97 25.38 4.33 25.6C4.7 25.81 5.02 26.09 5.28 26.44C5.44 26.66 5.58 26.94 5.69 27.28C5.8 27.61 5.86 27.92 5.85 28.22C5.86 28.34 5.77 28.42 5.67 28.43L4.54 28.46C4.44 28.46 4.35 28.36 4.35 28.22C4.35 28.06 4.33 27.89 4.27 27.71C4.22 27.54 4.15 27.39 4.07 27.28C3.79 26.91 3.42 26.69 2.96 26.62C2.5 26.54 2.08 26.64 1.7 26.9C1.32 27.17 1.09 27.52 1.02 27.96C0.95 28.4 1.06 28.81 1.34 29.17C1.42 29.29 1.54 29.4 1.69 29.5C1.85 29.6 2 29.68 2.15 29.72C2.3 29.77 2.39 29.89 2.35 30Z" fill="#414141" fill-opacity="1.000000" fill-rule="nonzero"/>
	<path id="Vector" d="M6.85 28.83C6.94 28.73 7.06 28.73 7.16 28.82L10.06 31.38C10.16 31.47 10.16 31.58 10.07 31.68L9.42 32.36C9.32 32.46 9.22 32.47 9.11 32.37L7.15 30.64L6.47 31.36L7.95 32.67C8.06 32.77 8.07 32.89 7.97 32.99L7.44 33.55C7.34 33.65 7.22 33.65 7.11 33.55L5.62 32.24L4.92 32.98L6.88 34.71C7.01 34.83 7.02 34.99 6.91 35.11L6.3 35.75C6.21 35.84 6.08 35.84 5.98 35.75L3.03 33.14C2.93 33.05 2.92 32.94 3.01 32.84L6.85 28.83Z" fill="#414141" fill-opacity="1.000000" fill-rule="nonzero"/>
	<path id="Vector" d="M13.12 37.25C13.11 37.54 13.02 37.8 12.86 38.05C12.56 38.53 12.16 38.8 11.67 38.87C11.18 38.94 10.65 38.81 10.08 38.47L8.07 37.26C7.97 37.21 7.96 37.13 8.01 37.05L11.08 32.32C11.13 32.24 11.21 32.22 11.3 32.28L13.16 33.39C13.71 33.72 14.05 34.1 14.19 34.53C14.32 34.97 14.25 35.41 13.95 35.87C13.71 36.23 13.3 36.47 12.89 36.48C13.05 36.71 13.12 36.97 13.12 37.25ZM10.78 37.35C11.11 37.55 11.45 37.48 11.65 37.17C11.85 36.86 11.76 36.55 11.43 36.35L10.58 35.85L9.94 36.84L10.78 37.35ZM11.73 34.08L11.19 34.92L11.88 35.34C12.16 35.51 12.44 35.45 12.61 35.19C12.78 34.93 12.71 34.66 12.43 34.5L11.73 34.08Z" fill="#414141" fill-opacity="1.000000" fill-rule="nonzero"/>
	<path id="Vector" d="M15.96 35.18C16.01 35.06 16.12 35.01 16.25 35.06L19.9 36.47C20.03 36.52 20.07 36.63 20.02 36.75L19.66 37.61C19.61 37.74 19.51 37.78 19.37 37.73L16.91 36.77L16.54 37.68L18.41 38.4C18.54 38.45 18.6 38.56 18.54 38.69L18.25 39.4C18.2 39.52 18.08 39.56 17.94 39.51L16.07 38.79L15.68 39.72L18.15 40.67C18.32 40.74 18.39 40.88 18.33 41.03L17.99 41.84C17.94 41.96 17.83 42 17.7 41.95L13.97 40.51C13.84 40.46 13.8 40.36 13.85 40.24L15.96 35.18Z" fill="#414141" fill-opacity="1.000000" fill-rule="nonzero"/>
	<path id="Vector" d="M23.47 37.34C24.11 37.47 24.58 37.76 24.9 38.21C25.21 38.66 25.3 39.18 25.16 39.79C25.03 40.39 24.71 40.82 24.24 41.1C23.76 41.37 23.2 41.45 22.56 41.31L21.85 41.16L21.49 42.72C21.46 42.85 21.36 42.92 21.22 42.89L20.17 42.66C20.04 42.64 19.98 42.54 20.01 42.41L21.22 37.09C21.25 36.97 21.36 36.9 21.48 36.92L22.01 37.04L22.54 37.15L23.47 37.34ZM22.8 40.01C23.01 40.05 23.2 40.02 23.36 39.92C23.53 39.82 23.64 39.67 23.68 39.47C23.73 39.27 23.7 39.09 23.59 38.93C23.49 38.77 23.33 38.66 23.12 38.62L22.46 38.48L22.15 39.87L22.8 40.01Z" fill="#414141" fill-opacity="1.000000" fill-rule="nonzero"/>
	<path id="Vector" d="M30.77 38.13C30.9 38.13 30.98 38.23 30.98 38.35L30.66 43.79C30.66 43.93 30.57 44 30.44 44L29.37 43.94C29.22 43.93 29.14 43.84 29.15 43.71L29.24 42.09L28.62 42.06L27.63 43.67C27.54 43.8 27.49 43.84 27.37 43.83L26.12 43.77C25.99 43.76 25.92 43.63 25.99 43.51L27.17 41.66C26.59 41.29 26.28 40.67 26.32 39.93C26.36 39.32 26.59 38.83 27.01 38.48C27.44 38.13 27.98 37.98 28.63 38.01L30.5 38.11L30.77 38.13ZM29.32 40.83L29.4 39.37L28.62 39.33C28.4 39.32 28.22 39.38 28.07 39.5C27.93 39.63 27.85 39.79 27.83 40C27.82 40.21 27.88 40.39 28.01 40.55C28.15 40.7 28.32 40.78 28.54 40.79L29.32 40.83Z" fill="#414141" fill-opacity="1.000000" fill-rule="nonzero"/>
	<path id="Vector" d="M37.38 37.55C37.49 37.54 37.54 37.58 37.56 37.69L38.25 43.21C38.26 43.32 38.21 43.37 38.11 43.39L36.93 43.52C36.83 43.53 36.77 43.49 36.76 43.38L36.48 41.19L34.21 41.45L34.49 43.65C34.5 43.75 34.45 43.81 34.35 43.82L33.18 43.95C33.07 43.97 33.01 43.92 33 43.82L32.31 38.29C32.3 38.18 32.34 38.13 32.45 38.12L33.62 37.98C33.73 37.97 33.79 38.02 33.8 38.12L34.05 40.14L36.32 39.87L36.07 37.86C36.06 37.75 36.11 37.7 36.21 37.68L37.38 37.55Z" fill="#414141" fill-opacity="1.000000" fill-rule="nonzero"/>
	<path id="Vector" d="M39.29 38.97C39.33 38.56 39.43 38.18 39.61 37.84C39.8 37.5 40.05 37.19 40.37 36.92C40.69 36.65 41.06 36.45 41.47 36.32C41.89 36.19 42.31 36.14 42.73 36.17C43.16 36.2 43.55 36.31 43.9 36.48C44.26 36.65 44.58 36.89 44.86 37.2C45.14 37.51 45.35 37.86 45.49 38.27C45.67 38.8 45.71 39.33 45.59 39.85C45.48 40.38 45.24 40.85 44.86 41.25C44.49 41.66 44.02 41.94 43.47 42.12C43.05 42.25 42.63 42.3 42.21 42.27C41.78 42.24 41.39 42.13 41.03 41.96C40.68 41.79 40.36 41.55 40.08 41.24C39.8 40.93 39.59 40.58 39.45 40.18C39.31 39.78 39.26 39.38 39.29 38.97ZM41.71 40.65C42.12 40.85 42.55 40.88 42.99 40.74C43.43 40.6 43.75 40.33 43.96 39.94C44.17 39.55 44.2 39.15 44.05 38.72C43.91 38.29 43.63 37.98 43.22 37.79C42.81 37.59 42.39 37.56 41.95 37.7C41.51 37.84 41.18 38.11 40.98 38.5C40.77 38.89 40.74 39.3 40.89 39.73C41.03 40.15 41.31 40.46 41.71 40.65Z" fill="#414141" fill-opacity="1.000000" fill-rule="nonzero"/>
	<path id="Vector" d="M49.44 32.77C49.54 32.71 49.67 32.75 49.73 32.86L52.56 37.58C52.62 37.68 52.59 37.81 52.48 37.86L51.54 38.38C51.44 38.44 51.31 38.41 51.25 38.31L50.3 36.71C50.18 37.1 49.89 37.47 49.49 37.69C48.87 38.04 48.24 38.13 47.62 37.96C47.01 37.8 46.5 37.4 46.12 36.76L45.27 35.33C45.21 35.23 45.23 35.1 45.33 35.05L46.26 34.53C46.38 34.47 46.51 34.5 46.58 34.61L47.43 36.03C47.76 36.58 48.29 36.72 48.86 36.4C49.15 36.24 49.32 36.04 49.4 35.79C49.48 35.54 49.44 35.28 49.28 35.02L48.42 33.58C48.36 33.48 48.39 33.35 48.49 33.29L49.44 32.77Z" fill="#414141" fill-opacity="1.000000" fill-rule="nonzero"/>
	<path id="Vector" d="M58.73 32.6C58.87 32.63 58.94 32.76 58.83 32.85L57.8 33.74C57.73 33.8 57.65 33.82 57.57 33.81L54.88 33.14L54.24 33.69L55.73 35.29C55.8 35.37 55.79 35.44 55.72 35.51L54.83 36.27C54.75 36.34 54.67 36.34 54.6 36.26L50.75 32.11C50.68 32.04 50.68 31.97 50.76 31.9L51.65 31.13C51.73 31.06 51.8 31.07 51.87 31.14L53.29 32.67L53.79 32.24L53.55 29.69C53.54 29.54 53.59 29.48 53.7 29.38L54.72 28.5C54.84 28.4 54.96 28.48 54.98 28.64L55.25 31.74L58.73 32.6Z" fill="#414141" fill-opacity="1.000000" fill-rule="nonzero"/>
	<path id="Vector" d="M63.34 26.67C63.48 26.7 63.54 26.8 63.45 26.93L62.77 27.87C62.7 27.96 62.57 28 62.45 27.97L61.63 27.74L60.41 29.41L60.91 30.06C60.99 30.15 60.99 30.28 60.92 30.38L60.24 31.32C60.15 31.44 60.03 31.43 59.94 31.31L56.59 26.42C56.52 26.3 56.52 26.17 56.59 26.08L57.1 25.39C57.16 25.29 57.3 25.25 57.42 25.28L63.34 26.67ZM59.62 28.37L60.35 27.38L58.47 26.85L59.62 28.37Z" fill="#414141" fill-opacity="1.000000" fill-rule="nonzero"/>
</svg>
