<svg width="24.000000" height="24.000000" viewBox="0 0 24 24" fill="none" xmlns="http://www.w3.org/2000/svg" xmlns:xlink="http://www.w3.org/1999/xlink">
	<desc>
			Created with Pixso.
	</desc>
	<defs/>
	<rect id="social / ok" width="24.000000" height="24.000000" transform="translate(-0.500000 0.000000)" fill="#FFFFFF" fill-opacity="0"/>
	<path id="Vector" d="M11.29 5.02C12.47 5.02 13.42 5.98 13.42 7.16C13.42 8.33 12.47 9.29 11.29 9.29C10.11 9.29 9.15 8.33 9.15 7.16C9.15 5.98 10.11 5.02 11.29 5.02ZM11.29 12.32C14.13 12.32 16.45 10 16.45 7.16C16.45 4.31 14.13 2 11.29 2C8.44 2 6.12 4.31 6.12 7.16C6.12 10 8.44 12.32 11.29 12.32ZM13.37 16.53C14.44 16.29 15.45 15.87 16.37 15.29C16.71 15.07 16.95 14.73 17.04 14.34C17.13 13.95 17.06 13.54 16.85 13.2C16.74 13.03 16.6 12.89 16.44 12.77C16.28 12.66 16.1 12.58 15.9 12.53C15.71 12.49 15.51 12.48 15.31 12.52C15.12 12.55 14.93 12.62 14.76 12.73C12.65 14.06 9.93 14.05 7.81 12.73C7.64 12.62 7.46 12.55 7.26 12.52C7.07 12.48 6.87 12.49 6.67 12.53C6.48 12.58 6.29 12.66 6.13 12.77C5.97 12.89 5.83 13.03 5.73 13.2C5.51 13.54 5.44 13.95 5.53 14.34C5.62 14.73 5.86 15.07 6.2 15.29C7.12 15.87 8.14 16.29 9.2 16.53L6.31 19.41C6.03 19.7 5.87 20.08 5.87 20.48C5.87 20.88 6.03 21.27 6.31 21.55C6.6 21.84 6.98 22 7.38 21.99C7.78 21.99 8.17 21.84 8.45 21.55L11.29 18.72L14.12 21.55C14.26 21.69 14.43 21.8 14.61 21.88C14.8 21.96 14.99 22 15.19 22C15.39 22 15.59 21.96 15.77 21.88C15.95 21.8 16.12 21.69 16.26 21.55C16.4 21.41 16.51 21.25 16.59 21.06C16.66 20.88 16.7 20.68 16.7 20.48C16.7 20.28 16.66 20.09 16.59 19.9C16.51 19.72 16.4 19.55 16.26 19.41L13.37 16.53Z" fill="#EE8208" fill-opacity="1.000000" fill-rule="nonzero"/>
</svg>
