<svg width="24.000000" height="24.000000" viewBox="0 0 24 24" fill="none" xmlns="http://www.w3.org/2000/svg" xmlns:xlink="http://www.w3.org/1999/xlink">
	<desc>
			Created with Pixso.
	</desc>
	<defs/>
	<rect width="24.000000" height="24.000000" transform="translate(-0.500000 0.000000)" fill="#FFFFFF" fill-opacity="0"/>
	<path d="M0.03 5.62C-0.21 3.78 1.37 2.5 3.07 2.5L6.66 2.5C7.39 2.5 8.01 3.01 8.14 3.73L8.74 7.06C8.93 8.06 8.67 9.08 8.03 9.87L7.31 10.78C7.18 10.94 7.17 11.15 7.27 11.32C7.74 12.08 8.58 13.37 9.35 14.14C10.12 14.91 11.41 15.75 12.18 16.22C12.34 16.32 12.55 16.31 12.71 16.18L13.62 15.46C14.41 14.83 15.43 14.57 16.43 14.75L19.77 15.35C20.48 15.48 21 16.1 21 16.83L21 20.18C21 22 19.55 23.62 17.61 23.31C14.3 22.78 9.56 21.07 5.63 16.84C1.81 12.72 0.39 8.51 0.03 5.62ZM3.07 3.5C1.81 3.5 0.88 4.41 1.02 5.5C1.36 8.19 2.69 12.2 6.36 16.15C10.11 20.19 14.63 21.81 17.77 22.32C18.97 22.51 20 21.52 20 20.18L20 16.83C20 16.59 19.82 16.38 19.59 16.34L16.25 15.73C15.54 15.6 14.81 15.79 14.24 16.24L13.34 16.96C12.86 17.34 12.19 17.4 11.65 17.07C10.89 16.61 9.5 15.71 8.64 14.85C7.78 13.99 6.88 12.6 6.42 11.84C6.09 11.3 6.15 10.63 6.53 10.15L7.25 9.25C7.7 8.68 7.89 7.95 7.76 7.24L7.15 3.91C7.11 3.67 6.9 3.5 6.66 3.5L3.07 3.5Z" fill="#414141" fill-opacity="1.000000" fill-rule="evenodd"/>
</svg>
