<svg width="24.000000" height="24.000000" viewBox="0 0 24 24" fill="none" xmlns="http://www.w3.org/2000/svg" xmlns:xlink="http://www.w3.org/1999/xlink">
	<desc>
			Created with Pixso.
	</desc>
	<defs/>
	<rect id="social / vkontakte" width="24.000000" height="24.000000" transform="translate(-0.500000 0.000000)" fill="#FFFFFF" fill-opacity="0"/>
	<path id="Vector" d="M11.28 17.36L12.48 17.36C12.48 17.36 12.84 17.32 13.02 17.12C13.19 16.94 13.18 16.59 13.18 16.59C13.18 16.59 13.16 14.99 13.91 14.75C14.64 14.52 15.58 16.3 16.58 16.99C17.34 17.51 17.91 17.4 17.91 17.4L20.58 17.36C20.58 17.36 21.98 17.27 21.32 16.17C21.26 16.08 20.93 15.36 19.33 13.88C17.66 12.32 17.88 12.57 19.9 9.88C21.13 8.25 21.62 7.25 21.46 6.82C21.32 6.41 20.41 6.52 20.41 6.52L17.41 6.54C17.41 6.54 17.19 6.51 17.02 6.61C16.86 6.7 16.75 6.93 16.75 6.93C16.75 6.93 16.28 8.2 15.64 9.27C14.3 11.55 13.77 11.67 13.55 11.53C13.04 11.2 13.17 10.2 13.17 9.5C13.17 7.29 13.5 6.38 12.52 6.14C12.19 6.06 11.95 6.01 11.11 6C10.04 5.99 9.13 6 8.62 6.25C8.28 6.42 8.01 6.79 8.17 6.82C8.37 6.84 8.82 6.94 9.06 7.26C9.37 7.68 9.36 8.62 9.36 8.62C9.36 8.62 9.54 11.22 8.94 11.54C8.54 11.76 7.98 11.31 6.79 9.25C6.18 8.19 5.71 7.02 5.71 7.02C5.71 7.02 5.63 6.8 5.47 6.69C5.27 6.55 5 6.5 5 6.5L2.15 6.52C2.15 6.52 1.72 6.53 1.56 6.72C1.42 6.88 1.55 7.23 1.55 7.23C1.55 7.23 3.79 12.46 6.32 15.1C8.64 17.52 11.28 17.36 11.28 17.36Z" fill="#1E88E5" fill-opacity="1.000000" fill-rule="nonzero"/>
</svg>
